<svg width="32" height="32" viewBox="0 0 32 32" fill="none" xmlns="http://www.w3.org/2000/svg">
  <!-- Background circle -->
  <circle cx="16" cy="16" r="16" fill="#F7931A"/>
  
  <!-- Bitcoin symbol -->
  <path d="M21.5 14.3c.3-2-1.2-3-3.2-3.8l.6-2.6-1.6-.4-.6 2.5c-.4-.1-.8-.2-1.3-.3l.6-2.5-1.6-.4-.7 2.6c-.3-.1-.7-.2-1-.2v-.1l-2.2-.5-.4 1.7s1.2.3 1.2.3c.7.2.8.6.8 1l-.8 3.5c0 .1.1.2.2.2h-.2l-1.2 4.7c-.1.2-.3.5-.8.4.1.1-1.2-.3-1.2-.3l-.8 1.9 2.1.5c.4.1.8.2 1.1.3l-.7 2.7 1.6.4.7-2.6c.4.1.9.2 1.3.3l-.7 2.6 1.6.4.7-2.7c2.7.5 4.7.3 5.5-2.1.7-1.9 0-3-1.4-3.7 1-.2 1.8-.9 2-2.2zm-3.6 4.8c-.5 1.9-3.7.9-4.7.6l.8-3.4c1 .3 4.4.8 3.9 2.8zm.5-4.9c-.4 1.7-3.1.9-4 .6l.8-3.1c.9.2 3.7.7 3.2 2.5z" fill="white"/>
</svg>
